<?xml version='1.0' encoding='UTF-8'?>
<!DOCTYPE svg PUBLIC "-//W3C//DTD SVG 1.0//EN" "http://www.w3.org/TR/2001/REC-SVG-20010904/DTD/svg10.dtd">
<svg viewBox="0 0 832 586" xmlns="http://www.w3.org/2000/svg" xmlns:inkspace="http://www.inkscape.org/namespaces/inkscape" xmlns:xlink="http://www.w3.org/1999/xlink">
  <defs id="defs_block">
    <filter height="1.504" id="filter_blur" inkspace:collect="always" width="1.1575" x="-0.07875" y="-0.252">
      <feGaussianBlur id="feGaussianBlur3780" inkspace:collect="always" stdDeviation="4.2" />
    </filter>
  </defs>
  <title>blockdiag</title>
  <desc>seqdiag {
    'task worker'; cloudigrade; 'message queue'; AWS;
    'task worker' =&gt; cloudigrade [label='enqueue volume'] {
        cloudigrade =&gt; AWS [label='check volume ready', return='true'];
        === if volume not ready, abort and retry later ===
        cloudigrade =&gt; 'message queue' [label='enqueue volume id'];
    }
}
</desc>
  <rect fill="rgb(0,0,0)" height="422" style="filter:url(#filter_blur);opacity:0.7;fill-opacity:1" width="8" x="127" y="142" />
  <rect fill="rgb(0,0,0)" height="376" style="filter:url(#filter_blur);opacity:0.7;fill-opacity:1" width="8" x="319" y="142" />
  <rect fill="rgb(0,0,0)" height="50" style="filter:url(#filter_blur);opacity:0.7;fill-opacity:1" width="8" x="511" y="418" />
  <rect fill="rgb(0,0,0)" height="64" style="filter:url(#filter_blur);opacity:0.7;fill-opacity:1" width="8" x="703" y="208" />
  <rect fill="rgb(0,0,0)" height="40" stroke="rgb(0,0,0)" style="filter:url(#filter_blur);opacity:0.7;fill-opacity:1" width="128" x="67" y="46" />
  <rect fill="rgb(0,0,0)" height="40" stroke="rgb(0,0,0)" style="filter:url(#filter_blur);opacity:0.7;fill-opacity:1" width="128" x="259" y="46" />
  <rect fill="rgb(0,0,0)" height="40" stroke="rgb(0,0,0)" style="filter:url(#filter_blur);opacity:0.7;fill-opacity:1" width="128" x="451" y="46" />
  <rect fill="rgb(0,0,0)" height="40" stroke="rgb(0,0,0)" style="filter:url(#filter_blur);opacity:0.7;fill-opacity:1" width="128" x="643" y="46" />
  <path d="M 128 80 L 128 574" fill="none" stroke="rgb(0,0,0)" stroke-dasharray="8 4" />
  <rect fill="moccasin" height="422" stroke="rgb(0,0,0)" width="8" x="124" y="136" />
  <path d="M 320 80 L 320 574" fill="none" stroke="rgb(0,0,0)" stroke-dasharray="8 4" />
  <rect fill="moccasin" height="376" stroke="rgb(0,0,0)" width="8" x="316" y="136" />
  <path d="M 512 80 L 512 574" fill="none" stroke="rgb(0,0,0)" stroke-dasharray="8 4" />
  <rect fill="moccasin" height="50" stroke="rgb(0,0,0)" width="8" x="508" y="412" />
  <path d="M 704 80 L 704 574" fill="none" stroke="rgb(0,0,0)" stroke-dasharray="8 4" />
  <rect fill="moccasin" height="64" stroke="rgb(0,0,0)" width="8" x="700" y="202" />
  <rect fill="rgb(255,255,255)" height="40" stroke="rgb(0,0,0)" width="128" x="64" y="40" />
  <text fill="rgb(0,0,0)" font-family="sans-serif" font-size="11" font-style="normal" font-weight="normal" text-anchor="middle" textLength="60" x="128.0" y="65">task worker</text>
  <rect fill="rgb(255,255,255)" height="40" stroke="rgb(0,0,0)" width="128" x="256" y="40" />
  <text fill="rgb(0,0,0)" font-family="sans-serif" font-size="11" font-style="normal" font-weight="normal" text-anchor="middle" textLength="56" x="320.0" y="66">cloudigrade</text>
  <rect fill="rgb(255,255,255)" height="40" stroke="rgb(0,0,0)" width="128" x="448" y="40" />
  <text fill="rgb(0,0,0)" font-family="sans-serif" font-size="11" font-style="normal" font-weight="normal" text-anchor="middle" textLength="78" x="512.0" y="66">message queue</text>
  <rect fill="rgb(255,255,255)" height="40" stroke="rgb(0,0,0)" width="128" x="640" y="40" />
  <text fill="rgb(0,0,0)" font-family="sans-serif" font-size="11" font-style="normal" font-weight="normal" text-anchor="middle" textLength="26" x="704.0" y="65">AWS</text>
  <path d="M 136 136 L 312 136" fill="none" stroke="rgb(0,0,0)" />
  <polygon fill="rgb(0,0,0)" points="304,132 312,136 304,140" stroke="rgb(0,0,0)" />
  <path d="M 328 202 L 696 202" fill="none" stroke="rgb(0,0,0)" />
  <polygon fill="rgb(0,0,0)" points="688,198 696,202 688,206" stroke="rgb(0,0,0)" />
  <path d="M 328 266 L 696 266" fill="none" stroke="rgb(0,0,0)" stroke-dasharray="4" />
  <polygon fill="rgb(0,0,0)" points="336,262 328,266 336,270" stroke="rgb(0,0,0)" />
  <path d="M 328 412 L 504 412" fill="none" stroke="rgb(0,0,0)" />
  <polygon fill="rgb(0,0,0)" points="496,408 504,412 496,416" stroke="rgb(0,0,0)" />
  <path d="M 328 462 L 504 462" fill="none" stroke="rgb(0,0,0)" stroke-dasharray="4" />
  <polygon fill="rgb(0,0,0)" points="336,458 328,462 336,466" stroke="rgb(0,0,0)" />
  <path d="M 136 512 L 312 512" fill="none" stroke="rgb(0,0,0)" stroke-dasharray="4" />
  <polygon fill="rgb(0,0,0)" points="144,508 136,512 144,516" stroke="rgb(0,0,0)" />
  <text fill="rgb(0,0,0)" font-family="sans-serif" font-size="11" font-style="normal" font-weight="normal" text-anchor="middle" textLength="82" x="181.0" y="134">enqueue volume</text>
  <text fill="rgb(0,0,0)" font-family="sans-serif" font-size="11" font-style="normal" font-weight="normal" text-anchor="middle" textLength="102" x="383.0" y="200">check volume ready</text>
  <text fill="rgb(0,0,0)" font-family="sans-serif" font-size="11" font-style="normal" font-weight="normal" text-anchor="middle" textLength="20" x="686.0" y="264">true</text>
  <text fill="rgb(0,0,0)" font-family="sans-serif" font-size="11" font-style="normal" font-weight="normal" text-anchor="middle" textLength="94" x="379.0" y="410">enqueue volume id</text>
  <path d="M 40 334 L 302 334" fill="none" stroke="rgb(0,0,0)" />
  <path d="M 40 338 L 302 338" fill="none" stroke="rgb(0,0,0)" />
  <path d="M 529 334 L 792 334" fill="none" stroke="rgb(0,0,0)" />
  <path d="M 529 338 L 792 338" fill="none" stroke="rgb(0,0,0)" />
  <rect fill="rgb(208,208,208)" height="20" stroke="rgb(0,0,0)" width="227" x="302" y="326" />
  <text fill="rgb(0,0,0)" font-family="sans-serif" font-size="11" font-style="normal" font-weight="normal" text-anchor="middle" textLength="207" x="415.5" y="342">if volume not ready, abort and retry later</text>
</svg>
