<?xml version='1.0' encoding='UTF-8'?>
<!DOCTYPE svg PUBLIC "-//W3C//DTD SVG 1.0//EN" "http://www.w3.org/TR/2001/REC-SVG-20010904/DTD/svg10.dtd">
<svg viewBox="0 0 832 712" xmlns="http://www.w3.org/2000/svg" xmlns:inkspace="http://www.inkscape.org/namespaces/inkscape" xmlns:xlink="http://www.w3.org/1999/xlink">
  <defs id="defs_block">
    <filter height="1.504" id="filter_blur" inkspace:collect="always" width="1.1575" x="-0.07875" y="-0.252">
      <feGaussianBlur id="feGaussianBlur3780" inkspace:collect="always" stdDeviation="4.2" />
    </filter>
  </defs>
  <title>blockdiag</title>
  <desc>seqdiag {
    'task worker'; cloudigrade; 'task queue'; AWS;
    'task worker' =&gt; cloudigrade [label='create volume'] {
        cloudigrade =&gt; AWS [label='check snapshot ready', return='true'];
        === if snapshot not ready, abort and retry later ===
        cloudigrade =&gt; AWS [label='start create volume', return='new volume id'];
        cloudigrade =&gt; 'task queue' [label='async enqueue volume'];
    }
}
</desc>
  <rect fill="rgb(0,0,0)" height="550" style="filter:url(#filter_blur);opacity:0.7;fill-opacity:1" width="8" x="127" y="140" />
  <rect fill="rgb(0,0,0)" height="504" style="filter:url(#filter_blur);opacity:0.7;fill-opacity:1" width="8" x="319" y="140" />
  <rect fill="rgb(0,0,0)" height="50" style="filter:url(#filter_blur);opacity:0.7;fill-opacity:1" width="8" x="511" y="544" />
  <rect fill="rgb(0,0,0)" height="64" style="filter:url(#filter_blur);opacity:0.7;fill-opacity:1" width="8" x="703" y="206" />
  <rect fill="rgb(0,0,0)" height="64" style="filter:url(#filter_blur);opacity:0.7;fill-opacity:1" width="8" x="703" y="414" />
  <rect fill="rgb(0,0,0)" height="40" stroke="rgb(0,0,0)" style="filter:url(#filter_blur);opacity:0.7;fill-opacity:1" width="128" x="67" y="46" />
  <rect fill="rgb(0,0,0)" height="40" stroke="rgb(0,0,0)" style="filter:url(#filter_blur);opacity:0.7;fill-opacity:1" width="128" x="259" y="46" />
  <rect fill="rgb(0,0,0)" height="40" stroke="rgb(0,0,0)" style="filter:url(#filter_blur);opacity:0.7;fill-opacity:1" width="128" x="451" y="46" />
  <rect fill="rgb(0,0,0)" height="40" stroke="rgb(0,0,0)" style="filter:url(#filter_blur);opacity:0.7;fill-opacity:1" width="128" x="643" y="46" />
  <path d="M 128 80 L 128 700" fill="none" stroke="rgb(0,0,0)" stroke-dasharray="8 4" />
  <rect fill="moccasin" height="550" stroke="rgb(0,0,0)" width="8" x="124" y="134" />
  <path d="M 320 80 L 320 700" fill="none" stroke="rgb(0,0,0)" stroke-dasharray="8 4" />
  <rect fill="moccasin" height="504" stroke="rgb(0,0,0)" width="8" x="316" y="134" />
  <path d="M 512 80 L 512 700" fill="none" stroke="rgb(0,0,0)" stroke-dasharray="8 4" />
  <rect fill="moccasin" height="50" stroke="rgb(0,0,0)" width="8" x="508" y="538" />
  <path d="M 704 80 L 704 700" fill="none" stroke="rgb(0,0,0)" stroke-dasharray="8 4" />
  <rect fill="moccasin" height="64" stroke="rgb(0,0,0)" width="8" x="700" y="200" />
  <rect fill="moccasin" height="64" stroke="rgb(0,0,0)" width="8" x="700" y="408" />
  <rect fill="rgb(255,255,255)" height="40" stroke="rgb(0,0,0)" width="128" x="64" y="40" />
  <text fill="rgb(0,0,0)" font-family="sans-serif" font-size="11" font-style="normal" font-weight="normal" text-anchor="middle" textLength="60" x="128.0" y="65">task worker</text>
  <rect fill="rgb(255,255,255)" height="40" stroke="rgb(0,0,0)" width="128" x="256" y="40" />
  <text fill="rgb(0,0,0)" font-family="sans-serif" font-size="11" font-style="normal" font-weight="normal" text-anchor="middle" textLength="56" x="320.0" y="66">cloudigrade</text>
  <rect fill="rgb(255,255,255)" height="40" stroke="rgb(0,0,0)" width="128" x="448" y="40" />
  <text fill="rgb(0,0,0)" font-family="sans-serif" font-size="11" font-style="normal" font-weight="normal" text-anchor="middle" textLength="55" x="512.5" y="66">task queue</text>
  <rect fill="rgb(255,255,255)" height="40" stroke="rgb(0,0,0)" width="128" x="640" y="40" />
  <text fill="rgb(0,0,0)" font-family="sans-serif" font-size="11" font-style="normal" font-weight="normal" text-anchor="middle" textLength="26" x="704.0" y="65">AWS</text>
  <path d="M 136 134 L 312 134" fill="none" stroke="rgb(0,0,0)" />
  <polygon fill="rgb(0,0,0)" points="304,130 312,134 304,138" stroke="rgb(0,0,0)" />
  <path d="M 328 200 L 696 200" fill="none" stroke="rgb(0,0,0)" />
  <polygon fill="rgb(0,0,0)" points="688,196 696,200 688,204" stroke="rgb(0,0,0)" />
  <path d="M 328 264 L 696 264" fill="none" stroke="rgb(0,0,0)" stroke-dasharray="4" />
  <polygon fill="rgb(0,0,0)" points="336,260 328,264 336,268" stroke="rgb(0,0,0)" />
  <path d="M 328 408 L 696 408" fill="none" stroke="rgb(0,0,0)" />
  <polygon fill="rgb(0,0,0)" points="688,404 696,408 688,412" stroke="rgb(0,0,0)" />
  <path d="M 328 472 L 696 472" fill="none" stroke="rgb(0,0,0)" stroke-dasharray="4" />
  <polygon fill="rgb(0,0,0)" points="336,468 328,472 336,476" stroke="rgb(0,0,0)" />
  <path d="M 328 538 L 504 538" fill="none" stroke="rgb(0,0,0)" />
  <polygon fill="rgb(0,0,0)" points="496,534 504,538 496,542" stroke="rgb(0,0,0)" />
  <path d="M 328 588 L 504 588" fill="none" stroke="rgb(0,0,0)" stroke-dasharray="4" />
  <polygon fill="rgb(0,0,0)" points="336,584 328,588 336,592" stroke="rgb(0,0,0)" />
  <path d="M 136 638 L 312 638" fill="none" stroke="rgb(0,0,0)" stroke-dasharray="4" />
  <polygon fill="rgb(0,0,0)" points="144,634 136,638 144,642" stroke="rgb(0,0,0)" />
  <text fill="rgb(0,0,0)" font-family="sans-serif" font-size="11" font-style="normal" font-weight="normal" text-anchor="middle" textLength="72" x="176.0" y="132">create volume</text>
  <text fill="rgb(0,0,0)" font-family="sans-serif" font-size="11" font-style="normal" font-weight="normal" text-anchor="middle" textLength="110" x="387.0" y="198">check snapshot ready</text>
  <text fill="rgb(0,0,0)" font-family="sans-serif" font-size="11" font-style="normal" font-weight="normal" text-anchor="middle" textLength="20" x="686.0" y="262">true</text>
  <text fill="rgb(0,0,0)" font-family="sans-serif" font-size="11" font-style="normal" font-weight="normal" text-anchor="middle" textLength="99" x="381.5" y="406">start create volume</text>
  <text fill="rgb(0,0,0)" font-family="sans-serif" font-size="11" font-style="normal" font-weight="normal" text-anchor="middle" textLength="73" x="659.5" y="470">new volume id</text>
  <text fill="rgb(0,0,0)" font-family="sans-serif" font-size="11" font-style="normal" font-weight="normal" text-anchor="middle" textLength="115" x="389.5" y="536">async enqueue volume</text>
  <path d="M 40 332 L 298 332" fill="none" stroke="rgb(0,0,0)" />
  <path d="M 40 336 L 298 336" fill="none" stroke="rgb(0,0,0)" />
  <path d="M 533 332 L 792 332" fill="none" stroke="rgb(0,0,0)" />
  <path d="M 533 336 L 792 336" fill="none" stroke="rgb(0,0,0)" />
  <rect fill="rgb(208,208,208)" height="20" stroke="rgb(0,0,0)" width="235" x="298" y="324" />
  <text fill="rgb(0,0,0)" font-family="sans-serif" font-size="11" font-style="normal" font-weight="normal" text-anchor="middle" textLength="215" x="415.5" y="340">if snapshot not ready, abort and retry later</text>
</svg>
