<?xml version='1.0' encoding='UTF-8'?>
<!DOCTYPE svg PUBLIC "-//W3C//DTD SVG 1.0//EN" "http://www.w3.org/TR/2001/REC-SVG-20010904/DTD/svg10.dtd">
<svg viewBox="0 0 1024 907" xmlns="http://www.w3.org/2000/svg" xmlns:inkspace="http://www.inkscape.org/namespaces/inkscape" xmlns:xlink="http://www.w3.org/1999/xlink">
  <defs id="defs_block">
    <filter height="1.504" id="filter_blur" inkspace:collect="always" width="1.1575" x="-0.07875" y="-0.252">
      <feGaussianBlur id="feGaussianBlur3780" inkspace:collect="always" stdDeviation="4.2" />
    </filter>
  </defs>
  <title>blockdiag</title>
  <desc>seqdiag {
    'cron'; cloudigrade; 'message queue'; 'task queue'; AWS;
    'cron' =&gt; cloudigrade [label='scale cluster'] {
        cloudigrade =&gt; AWS [label='check cluster size', return='0'];
        === if nonzero, abort and retry later ===
        cloudigrade =&gt; 'message queue' [label='get volume ids', return='volume ids'];
        === if no messages, abort and retry later ===
        cloudigrade =&gt; AWS [label='set cluster scale'];
        cloudigrade =&gt; 'task queue' [label='async configure cluster'];
    }
}
</desc>
  <rect fill="rgb(0,0,0)" height="745" style="filter:url(#filter_blur);opacity:0.7;fill-opacity:1" width="8" x="127" y="140" />
  <rect fill="rgb(0,0,0)" height="699" style="filter:url(#filter_blur);opacity:0.7;fill-opacity:1" width="8" x="319" y="140" />
  <rect fill="rgb(0,0,0)" height="64" style="filter:url(#filter_blur);opacity:0.7;fill-opacity:1" width="8" x="511" y="414" />
  <rect fill="rgb(0,0,0)" height="50" style="filter:url(#filter_blur);opacity:0.7;fill-opacity:1" width="8" x="703" y="739" />
  <rect fill="rgb(0,0,0)" height="64" style="filter:url(#filter_blur);opacity:0.7;fill-opacity:1" width="8" x="895" y="204" />
  <rect fill="rgb(0,0,0)" height="50" style="filter:url(#filter_blur);opacity:0.7;fill-opacity:1" width="8" x="895" y="622" />
  <rect fill="rgb(0,0,0)" height="40" stroke="rgb(0,0,0)" style="filter:url(#filter_blur);opacity:0.7;fill-opacity:1" width="128" x="67" y="46" />
  <rect fill="rgb(0,0,0)" height="40" stroke="rgb(0,0,0)" style="filter:url(#filter_blur);opacity:0.7;fill-opacity:1" width="128" x="259" y="46" />
  <rect fill="rgb(0,0,0)" height="40" stroke="rgb(0,0,0)" style="filter:url(#filter_blur);opacity:0.7;fill-opacity:1" width="128" x="451" y="46" />
  <rect fill="rgb(0,0,0)" height="40" stroke="rgb(0,0,0)" style="filter:url(#filter_blur);opacity:0.7;fill-opacity:1" width="128" x="643" y="46" />
  <rect fill="rgb(0,0,0)" height="40" stroke="rgb(0,0,0)" style="filter:url(#filter_blur);opacity:0.7;fill-opacity:1" width="128" x="835" y="46" />
  <path d="M 128 80 L 128 895" fill="none" stroke="rgb(0,0,0)" stroke-dasharray="8 4" />
  <rect fill="moccasin" height="745" stroke="rgb(0,0,0)" width="8" x="124" y="134" />
  <path d="M 320 80 L 320 895" fill="none" stroke="rgb(0,0,0)" stroke-dasharray="8 4" />
  <rect fill="moccasin" height="699" stroke="rgb(0,0,0)" width="8" x="316" y="134" />
  <path d="M 512 80 L 512 895" fill="none" stroke="rgb(0,0,0)" stroke-dasharray="8 4" />
  <rect fill="moccasin" height="64" stroke="rgb(0,0,0)" width="8" x="508" y="408" />
  <path d="M 704 80 L 704 895" fill="none" stroke="rgb(0,0,0)" stroke-dasharray="8 4" />
  <rect fill="moccasin" height="50" stroke="rgb(0,0,0)" width="8" x="700" y="733" />
  <path d="M 896 80 L 896 895" fill="none" stroke="rgb(0,0,0)" stroke-dasharray="8 4" />
  <rect fill="moccasin" height="64" stroke="rgb(0,0,0)" width="8" x="892" y="198" />
  <rect fill="moccasin" height="50" stroke="rgb(0,0,0)" width="8" x="892" y="616" />
  <rect fill="rgb(255,255,255)" height="40" stroke="rgb(0,0,0)" width="128" x="64" y="40" />
  <text fill="rgb(0,0,0)" font-family="sans-serif" font-size="11" font-style="normal" font-weight="normal" text-anchor="middle" textLength="22" x="128.0" y="65">cron</text>
  <rect fill="rgb(255,255,255)" height="40" stroke="rgb(0,0,0)" width="128" x="256" y="40" />
  <text fill="rgb(0,0,0)" font-family="sans-serif" font-size="11" font-style="normal" font-weight="normal" text-anchor="middle" textLength="56" x="320.0" y="66">cloudigrade</text>
  <rect fill="rgb(255,255,255)" height="40" stroke="rgb(0,0,0)" width="128" x="448" y="40" />
  <text fill="rgb(0,0,0)" font-family="sans-serif" font-size="11" font-style="normal" font-weight="normal" text-anchor="middle" textLength="78" x="512.0" y="66">message queue</text>
  <rect fill="rgb(255,255,255)" height="40" stroke="rgb(0,0,0)" width="128" x="640" y="40" />
  <text fill="rgb(0,0,0)" font-family="sans-serif" font-size="11" font-style="normal" font-weight="normal" text-anchor="middle" textLength="55" x="704.5" y="66">task queue</text>
  <rect fill="rgb(255,255,255)" height="40" stroke="rgb(0,0,0)" width="128" x="832" y="40" />
  <text fill="rgb(0,0,0)" font-family="sans-serif" font-size="11" font-style="normal" font-weight="normal" text-anchor="middle" textLength="26" x="896.0" y="65">AWS</text>
  <path d="M 136 134 L 312 134" fill="none" stroke="rgb(0,0,0)" />
  <polygon fill="rgb(0,0,0)" points="304,130 312,134 304,138" stroke="rgb(0,0,0)" />
  <path d="M 328 198 L 888 198" fill="none" stroke="rgb(0,0,0)" />
  <polygon fill="rgb(0,0,0)" points="880,194 888,198 880,202" stroke="rgb(0,0,0)" />
  <path d="M 328 262 L 888 262" fill="none" stroke="rgb(0,0,0)" stroke-dasharray="4" />
  <polygon fill="rgb(0,0,0)" points="336,258 328,262 336,266" stroke="rgb(0,0,0)" />
  <path d="M 328 408 L 504 408" fill="none" stroke="rgb(0,0,0)" />
  <polygon fill="rgb(0,0,0)" points="496,404 504,408 496,412" stroke="rgb(0,0,0)" />
  <path d="M 328 472 L 504 472" fill="none" stroke="rgb(0,0,0)" stroke-dasharray="4" />
  <polygon fill="rgb(0,0,0)" points="336,468 328,472 336,476" stroke="rgb(0,0,0)" />
  <path d="M 328 616 L 888 616" fill="none" stroke="rgb(0,0,0)" />
  <polygon fill="rgb(0,0,0)" points="880,612 888,616 880,620" stroke="rgb(0,0,0)" />
  <path d="M 328 666 L 888 666" fill="none" stroke="rgb(0,0,0)" stroke-dasharray="4" />
  <polygon fill="rgb(0,0,0)" points="336,662 328,666 336,670" stroke="rgb(0,0,0)" />
  <path d="M 328 733 L 696 733" fill="none" stroke="rgb(0,0,0)" />
  <polygon fill="rgb(0,0,0)" points="688,729 696,733 688,737" stroke="rgb(0,0,0)" />
  <path d="M 328 783 L 696 783" fill="none" stroke="rgb(0,0,0)" stroke-dasharray="4" />
  <polygon fill="rgb(0,0,0)" points="336,779 328,783 336,787" stroke="rgb(0,0,0)" />
  <path d="M 136 833 L 312 833" fill="none" stroke="rgb(0,0,0)" stroke-dasharray="4" />
  <polygon fill="rgb(0,0,0)" points="144,829 136,833 144,837" stroke="rgb(0,0,0)" />
  <text fill="rgb(0,0,0)" font-family="sans-serif" font-size="11" font-style="normal" font-weight="normal" text-anchor="middle" textLength="62" x="171.0" y="132">scale cluster</text>
  <text fill="rgb(0,0,0)" font-family="sans-serif" font-size="11" font-style="normal" font-weight="normal" text-anchor="middle" textLength="90" x="377.0" y="196">check cluster size</text>
  <text fill="rgb(0,0,0)" font-family="sans-serif" font-size="11" font-style="normal" font-weight="normal" text-anchor="middle" textLength="7" x="884.5" y="260">0</text>
  <text fill="rgb(0,0,0)" font-family="sans-serif" font-size="11" font-style="normal" font-weight="normal" text-anchor="middle" textLength="74" x="369.0" y="406">get volume ids</text>
  <text fill="rgb(0,0,0)" font-family="sans-serif" font-size="11" font-style="normal" font-weight="normal" text-anchor="middle" textLength="54" x="477.0" y="470">volume ids</text>
  <text fill="rgb(0,0,0)" font-family="sans-serif" font-size="11" font-style="normal" font-weight="normal" text-anchor="middle" textLength="81" x="372.5" y="614">set cluster scale</text>
  <text fill="rgb(0,0,0)" font-family="sans-serif" font-size="11" font-style="normal" font-weight="normal" text-anchor="middle" textLength="116" x="390.0" y="731">async configure cluster</text>
  <path d="M 40 330 L 422 330" fill="none" stroke="rgb(0,0,0)" />
  <path d="M 40 334 L 422 334" fill="none" stroke="rgb(0,0,0)" />
  <path d="M 601 330 L 984 330" fill="none" stroke="rgb(0,0,0)" />
  <path d="M 601 334 L 984 334" fill="none" stroke="rgb(0,0,0)" />
  <rect fill="rgb(208,208,208)" height="20" stroke="rgb(0,0,0)" width="179" x="422" y="322" />
  <text fill="rgb(0,0,0)" font-family="sans-serif" font-size="11" font-style="normal" font-weight="normal" text-anchor="middle" textLength="159" x="511.5" y="338">if nonzero, abort and retry later</text>
  <path d="M 40 539 L 410 539" fill="none" stroke="rgb(0,0,0)" />
  <path d="M 40 543 L 410 543" fill="none" stroke="rgb(0,0,0)" />
  <path d="M 614 539 L 984 539" fill="none" stroke="rgb(0,0,0)" />
  <path d="M 614 543 L 984 543" fill="none" stroke="rgb(0,0,0)" />
  <rect fill="rgb(208,208,208)" height="21" stroke="rgb(0,0,0)" width="204" x="410" y="531" />
  <text fill="rgb(0,0,0)" font-family="sans-serif" font-size="11" font-style="normal" font-weight="normal" text-anchor="middle" textLength="184" x="512.0" y="548">if no messages, abort and retry later</text>
</svg>
