<?xml version='1.0' encoding='UTF-8'?>
<!DOCTYPE svg PUBLIC "-//W3C//DTD SVG 1.0//EN" "http://www.w3.org/TR/2001/REC-SVG-20010904/DTD/svg10.dtd">
<svg viewBox="0 0 832 590" xmlns="http://www.w3.org/2000/svg" xmlns:inkspace="http://www.inkscape.org/namespaces/inkscape" xmlns:xlink="http://www.w3.org/1999/xlink">
  <defs id="defs_block">
    <filter height="1.504" id="filter_blur" inkspace:collect="always" width="1.1575" x="-0.07875" y="-0.252">
      <feGaussianBlur id="feGaussianBlur3780" inkspace:collect="always" stdDeviation="4.2" />
    </filter>
  </defs>
  <title>blockdiag</title>
  <desc>seqdiag {
    'task worker'; cloudigrade; 'message queue'; AWS;
    'task worker' =&gt; cloudigrade [label='enqueue volume'] {
        cloudigrade =&gt; AWS [label='check volume ready', return='true'];
        === if volume not ready, abort and retry later ===
        cloudigrade =&gt; 'message queue' [label='enqueue volume id'];
    }
}
</desc>
  <rect fill="rgb(0,0,0)" height="425" style="filter:url(#filter_blur);opacity:0.7;fill-opacity:1" width="8" x="127" y="143" />
  <rect fill="rgb(0,0,0)" height="379" style="filter:url(#filter_blur);opacity:0.7;fill-opacity:1" width="8" x="319" y="143" />
  <rect fill="rgb(0,0,0)" height="50" style="filter:url(#filter_blur);opacity:0.7;fill-opacity:1" width="8" x="511" y="422" />
  <rect fill="rgb(0,0,0)" height="65" style="filter:url(#filter_blur);opacity:0.7;fill-opacity:1" width="8" x="703" y="210" />
  <rect fill="rgb(0,0,0)" height="40" stroke="rgb(0,0,0)" style="filter:url(#filter_blur);opacity:0.7;fill-opacity:1" width="128" x="67" y="46" />
  <rect fill="rgb(0,0,0)" height="40" stroke="rgb(0,0,0)" style="filter:url(#filter_blur);opacity:0.7;fill-opacity:1" width="128" x="259" y="46" />
  <rect fill="rgb(0,0,0)" height="40" stroke="rgb(0,0,0)" style="filter:url(#filter_blur);opacity:0.7;fill-opacity:1" width="128" x="451" y="46" />
  <rect fill="rgb(0,0,0)" height="40" stroke="rgb(0,0,0)" style="filter:url(#filter_blur);opacity:0.7;fill-opacity:1" width="128" x="643" y="46" />
  <path d="M 128 80 L 128 578" fill="none" stroke="rgb(0,0,0)" stroke-dasharray="8 4" />
  <rect fill="moccasin" height="425" stroke="rgb(0,0,0)" width="8" x="124" y="137" />
  <path d="M 320 80 L 320 578" fill="none" stroke="rgb(0,0,0)" stroke-dasharray="8 4" />
  <rect fill="moccasin" height="379" stroke="rgb(0,0,0)" width="8" x="316" y="137" />
  <path d="M 512 80 L 512 578" fill="none" stroke="rgb(0,0,0)" stroke-dasharray="8 4" />
  <rect fill="moccasin" height="50" stroke="rgb(0,0,0)" width="8" x="508" y="416" />
  <path d="M 704 80 L 704 578" fill="none" stroke="rgb(0,0,0)" stroke-dasharray="8 4" />
  <rect fill="moccasin" height="65" stroke="rgb(0,0,0)" width="8" x="700" y="204" />
  <rect fill="rgb(255,255,255)" height="40" stroke="rgb(0,0,0)" width="128" x="64" y="40" />
  <text fill="rgb(0,0,0)" font-family="sans-serif" font-size="11" font-style="normal" font-weight="normal" text-anchor="middle" textLength="77" x="128.5" y="66">task worker</text>
  <rect fill="rgb(255,255,255)" height="40" stroke="rgb(0,0,0)" width="128" x="256" y="40" />
  <text fill="rgb(0,0,0)" font-family="sans-serif" font-size="11" font-style="normal" font-weight="normal" text-anchor="middle" textLength="77" x="320.5" y="67">cloudigrade</text>
  <rect fill="rgb(255,255,255)" height="40" stroke="rgb(0,0,0)" width="128" x="448" y="40" />
  <text fill="rgb(0,0,0)" font-family="sans-serif" font-size="11" font-style="normal" font-weight="normal" text-anchor="middle" textLength="91" x="512.5" y="67">message queue</text>
  <rect fill="rgb(255,255,255)" height="40" stroke="rgb(0,0,0)" width="128" x="640" y="40" />
  <text fill="rgb(0,0,0)" font-family="sans-serif" font-size="11" font-style="normal" font-weight="normal" text-anchor="middle" textLength="21" x="704.5" y="66">AWS</text>
  <path d="M 136 137 L 312 137" fill="none" stroke="rgb(0,0,0)" />
  <polygon fill="rgb(0,0,0)" points="304,133 312,137 304,141" stroke="rgb(0,0,0)" />
  <path d="M 328 204 L 696 204" fill="none" stroke="rgb(0,0,0)" />
  <polygon fill="rgb(0,0,0)" points="688,200 696,204 688,208" stroke="rgb(0,0,0)" />
  <path d="M 328 269 L 696 269" fill="none" stroke="rgb(0,0,0)" stroke-dasharray="4" />
  <polygon fill="rgb(0,0,0)" points="336,265 328,269 336,273" stroke="rgb(0,0,0)" />
  <path d="M 328 416 L 504 416" fill="none" stroke="rgb(0,0,0)" />
  <polygon fill="rgb(0,0,0)" points="496,412 504,416 496,420" stroke="rgb(0,0,0)" />
  <path d="M 328 466 L 504 466" fill="none" stroke="rgb(0,0,0)" stroke-dasharray="4" />
  <polygon fill="rgb(0,0,0)" points="336,462 328,466 336,470" stroke="rgb(0,0,0)" />
  <path d="M 136 516 L 312 516" fill="none" stroke="rgb(0,0,0)" stroke-dasharray="4" />
  <polygon fill="rgb(0,0,0)" points="144,512 136,516 144,520" stroke="rgb(0,0,0)" />
  <text fill="rgb(0,0,0)" font-family="sans-serif" font-size="11" font-style="normal" font-weight="normal" text-anchor="middle" textLength="98" x="189.0" y="135">enqueue volume</text>
  <text fill="rgb(0,0,0)" font-family="sans-serif" font-size="11" font-style="normal" font-weight="normal" text-anchor="middle" textLength="126" x="395.0" y="202">check volume ready</text>
  <text fill="rgb(0,0,0)" font-family="sans-serif" font-size="11" font-style="normal" font-weight="normal" text-anchor="middle" textLength="28" x="682.0" y="267">true</text>
  <text fill="rgb(0,0,0)" font-family="sans-serif" font-size="11" font-style="normal" font-weight="normal" text-anchor="middle" textLength="119" x="391.5" y="414">enqueue volume id</text>
  <path d="M 40 336 L 259 336" fill="none" stroke="rgb(0,0,0)" />
  <path d="M 40 340 L 259 340" fill="none" stroke="rgb(0,0,0)" />
  <path d="M 573 336 L 792 336" fill="none" stroke="rgb(0,0,0)" />
  <path d="M 573 340 L 792 340" fill="none" stroke="rgb(0,0,0)" />
  <rect fill="rgb(208,208,208)" height="21" stroke="rgb(0,0,0)" width="314" x="259" y="328" />
  <text fill="rgb(0,0,0)" font-family="sans-serif" font-size="11" font-style="normal" font-weight="normal" text-anchor="middle" textLength="294" x="416.0" y="345">if volume not ready, abort and retry later</text>
</svg>
