<?xml version='1.0' encoding='UTF-8'?>
<!DOCTYPE svg PUBLIC "-//W3C//DTD SVG 1.0//EN" "http://www.w3.org/TR/2001/REC-SVG-20010904/DTD/svg10.dtd">
<svg viewBox="0 0 1024 707" xmlns="http://www.w3.org/2000/svg" xmlns:inkspace="http://www.inkscape.org/namespaces/inkscape" xmlns:xlink="http://www.w3.org/1999/xlink">
  <defs id="defs_block">
    <filter height="1.504" id="filter_blur" inkspace:collect="always" width="1.1575" x="-0.07875" y="-0.252">
      <feGaussianBlur id="feGaussianBlur3780" inkspace:collect="always" stdDeviation="4.2" />
    </filter>
  </defs>
  <title>blockdiag</title>
  <desc>seqdiag {
    'cron'; cloudigrade; 'message queue'; db; 'task queue';
    'cron' =&gt; cloudigrade [label='process results'] {
        cloudigrade =&gt; 'message queue' [label='get inspection data', return='data'];
        === if no messages, abort and retry later ===
        cloudigrade =&gt; db [label='save inspection data'];
        cloudigrade =&gt; 'task queue' [label='async cleanup cluster'];
    }
}
</desc>
  <rect fill="rgb(0,0,0)" height="542" style="filter:url(#filter_blur);opacity:0.7;fill-opacity:1" width="8" x="127" y="143" />
  <rect fill="rgb(0,0,0)" height="496" style="filter:url(#filter_blur);opacity:0.7;fill-opacity:1" width="8" x="319" y="143" />
  <rect fill="rgb(0,0,0)" height="65" style="filter:url(#filter_blur);opacity:0.7;fill-opacity:1" width="8" x="511" y="210" />
  <rect fill="rgb(0,0,0)" height="50" style="filter:url(#filter_blur);opacity:0.7;fill-opacity:1" width="8" x="703" y="422" />
  <rect fill="rgb(0,0,0)" height="50" style="filter:url(#filter_blur);opacity:0.7;fill-opacity:1" width="8" x="895" y="539" />
  <rect fill="rgb(0,0,0)" height="40" stroke="rgb(0,0,0)" style="filter:url(#filter_blur);opacity:0.7;fill-opacity:1" width="128" x="67" y="46" />
  <rect fill="rgb(0,0,0)" height="40" stroke="rgb(0,0,0)" style="filter:url(#filter_blur);opacity:0.7;fill-opacity:1" width="128" x="259" y="46" />
  <rect fill="rgb(0,0,0)" height="40" stroke="rgb(0,0,0)" style="filter:url(#filter_blur);opacity:0.7;fill-opacity:1" width="128" x="451" y="46" />
  <rect fill="rgb(0,0,0)" height="40" stroke="rgb(0,0,0)" style="filter:url(#filter_blur);opacity:0.7;fill-opacity:1" width="128" x="643" y="46" />
  <rect fill="rgb(0,0,0)" height="40" stroke="rgb(0,0,0)" style="filter:url(#filter_blur);opacity:0.7;fill-opacity:1" width="128" x="835" y="46" />
  <path d="M 128 80 L 128 695" fill="none" stroke="rgb(0,0,0)" stroke-dasharray="8 4" />
  <rect fill="moccasin" height="542" stroke="rgb(0,0,0)" width="8" x="124" y="137" />
  <path d="M 320 80 L 320 695" fill="none" stroke="rgb(0,0,0)" stroke-dasharray="8 4" />
  <rect fill="moccasin" height="496" stroke="rgb(0,0,0)" width="8" x="316" y="137" />
  <path d="M 512 80 L 512 695" fill="none" stroke="rgb(0,0,0)" stroke-dasharray="8 4" />
  <rect fill="moccasin" height="65" stroke="rgb(0,0,0)" width="8" x="508" y="204" />
  <path d="M 704 80 L 704 695" fill="none" stroke="rgb(0,0,0)" stroke-dasharray="8 4" />
  <rect fill="moccasin" height="50" stroke="rgb(0,0,0)" width="8" x="700" y="416" />
  <path d="M 896 80 L 896 695" fill="none" stroke="rgb(0,0,0)" stroke-dasharray="8 4" />
  <rect fill="moccasin" height="50" stroke="rgb(0,0,0)" width="8" x="892" y="533" />
  <rect fill="rgb(255,255,255)" height="40" stroke="rgb(0,0,0)" width="128" x="64" y="40" />
  <text fill="rgb(0,0,0)" font-family="sans-serif" font-size="11" font-style="normal" font-weight="normal" text-anchor="middle" textLength="28" x="128.0" y="66">cron</text>
  <rect fill="rgb(255,255,255)" height="40" stroke="rgb(0,0,0)" width="128" x="256" y="40" />
  <text fill="rgb(0,0,0)" font-family="sans-serif" font-size="11" font-style="normal" font-weight="normal" text-anchor="middle" textLength="77" x="320.5" y="67">cloudigrade</text>
  <rect fill="rgb(255,255,255)" height="40" stroke="rgb(0,0,0)" width="128" x="448" y="40" />
  <text fill="rgb(0,0,0)" font-family="sans-serif" font-size="11" font-style="normal" font-weight="normal" text-anchor="middle" textLength="91" x="512.5" y="67">message queue</text>
  <rect fill="rgb(255,255,255)" height="40" stroke="rgb(0,0,0)" width="128" x="640" y="40" />
  <text fill="rgb(0,0,0)" font-family="sans-serif" font-size="11" font-style="normal" font-weight="normal" text-anchor="middle" textLength="14" x="704.0" y="66">db</text>
  <rect fill="rgb(255,255,255)" height="40" stroke="rgb(0,0,0)" width="128" x="832" y="40" />
  <text fill="rgb(0,0,0)" font-family="sans-serif" font-size="11" font-style="normal" font-weight="normal" text-anchor="middle" textLength="70" x="896.0" y="67">task queue</text>
  <path d="M 136 137 L 312 137" fill="none" stroke="rgb(0,0,0)" />
  <polygon fill="rgb(0,0,0)" points="304,133 312,137 304,141" stroke="rgb(0,0,0)" />
  <path d="M 328 204 L 504 204" fill="none" stroke="rgb(0,0,0)" />
  <polygon fill="rgb(0,0,0)" points="496,200 504,204 496,208" stroke="rgb(0,0,0)" />
  <path d="M 328 269 L 504 269" fill="none" stroke="rgb(0,0,0)" stroke-dasharray="4" />
  <polygon fill="rgb(0,0,0)" points="336,265 328,269 336,273" stroke="rgb(0,0,0)" />
  <path d="M 328 416 L 696 416" fill="none" stroke="rgb(0,0,0)" />
  <polygon fill="rgb(0,0,0)" points="688,412 696,416 688,420" stroke="rgb(0,0,0)" />
  <path d="M 328 466 L 696 466" fill="none" stroke="rgb(0,0,0)" stroke-dasharray="4" />
  <polygon fill="rgb(0,0,0)" points="336,462 328,466 336,470" stroke="rgb(0,0,0)" />
  <path d="M 328 533 L 888 533" fill="none" stroke="rgb(0,0,0)" />
  <polygon fill="rgb(0,0,0)" points="880,529 888,533 880,537" stroke="rgb(0,0,0)" />
  <path d="M 328 583 L 888 583" fill="none" stroke="rgb(0,0,0)" stroke-dasharray="4" />
  <polygon fill="rgb(0,0,0)" points="336,579 328,583 336,587" stroke="rgb(0,0,0)" />
  <path d="M 136 633 L 312 633" fill="none" stroke="rgb(0,0,0)" stroke-dasharray="4" />
  <polygon fill="rgb(0,0,0)" points="144,629 136,633 144,637" stroke="rgb(0,0,0)" />
  <text fill="rgb(0,0,0)" font-family="sans-serif" font-size="11" font-style="normal" font-weight="normal" text-anchor="middle" textLength="105" x="192.5" y="135">process results</text>
  <text fill="rgb(0,0,0)" font-family="sans-serif" font-size="11" font-style="normal" font-weight="normal" text-anchor="middle" textLength="133" x="398.5" y="202">get inspection data</text>
  <text fill="rgb(0,0,0)" font-family="sans-serif" font-size="11" font-style="normal" font-weight="normal" text-anchor="middle" textLength="28" x="490.0" y="267">data</text>
  <text fill="rgb(0,0,0)" font-family="sans-serif" font-size="11" font-style="normal" font-weight="normal" text-anchor="middle" textLength="140" x="402.0" y="414">save inspection data</text>
  <text fill="rgb(0,0,0)" font-family="sans-serif" font-size="11" font-style="normal" font-weight="normal" text-anchor="middle" textLength="147" x="405.5" y="531">async cleanup cluster</text>
  <path d="M 40 336 L 372 336" fill="none" stroke="rgb(0,0,0)" />
  <path d="M 40 340 L 372 340" fill="none" stroke="rgb(0,0,0)" />
  <path d="M 651 336 L 984 336" fill="none" stroke="rgb(0,0,0)" />
  <path d="M 651 340 L 984 340" fill="none" stroke="rgb(0,0,0)" />
  <rect fill="rgb(208,208,208)" height="21" stroke="rgb(0,0,0)" width="279" x="372" y="328" />
  <text fill="rgb(0,0,0)" font-family="sans-serif" font-size="11" font-style="normal" font-weight="normal" text-anchor="middle" textLength="259" x="511.5" y="345">if no messages, abort and retry later</text>
</svg>
