<?xml version='1.0' encoding='UTF-8'?>
<!DOCTYPE svg PUBLIC "-//W3C//DTD SVG 1.0//EN" "http://www.w3.org/TR/2001/REC-SVG-20010904/DTD/svg10.dtd">
<svg viewBox="0 0 832 763" xmlns="http://www.w3.org/2000/svg" xmlns:inkspace="http://www.inkscape.org/namespaces/inkscape" xmlns:xlink="http://www.w3.org/1999/xlink">
  <defs id="defs_block">
    <filter height="1.504" id="filter_blur" inkspace:collect="always" width="1.1575" x="-0.07875" y="-0.252">
      <feGaussianBlur id="feGaussianBlur3780" inkspace:collect="always" stdDeviation="4.2" />
    </filter>
  </defs>
  <title>blockdiag</title>
  <desc>seqdiag {
    'task worker'; cloudigrade; 'task queue'; AWS;
    'task worker' =&gt; cloudigrade [label='copy snapshot'] {
        cloudigrade =&gt; AWS [label='get snapshot id', return='snapshot id'];
        cloudigrade =&gt; AWS [label='set snapshot ownership'];
        cloudigrade =&gt; AWS [label='start copy snapshot', return='new snapshot id'];
        cloudigrade =&gt; 'task queue' [label='async create volume'];
    }
}
</desc>
  <rect fill="rgb(0,0,0)" height="598" style="filter:url(#filter_blur);opacity:0.7;fill-opacity:1" width="8" x="127" y="143" />
  <rect fill="rgb(0,0,0)" height="552" style="filter:url(#filter_blur);opacity:0.7;fill-opacity:1" width="8" x="319" y="143" />
  <rect fill="rgb(0,0,0)" height="50" style="filter:url(#filter_blur);opacity:0.7;fill-opacity:1" width="8" x="511" y="595" />
  <rect fill="rgb(0,0,0)" height="67" style="filter:url(#filter_blur);opacity:0.7;fill-opacity:1" width="8" x="703" y="210" />
  <rect fill="rgb(0,0,0)" height="50" style="filter:url(#filter_blur);opacity:0.7;fill-opacity:1" width="8" x="703" y="344" />
  <rect fill="rgb(0,0,0)" height="67" style="filter:url(#filter_blur);opacity:0.7;fill-opacity:1" width="8" x="703" y="461" />
  <rect fill="rgb(0,0,0)" height="40" stroke="rgb(0,0,0)" style="filter:url(#filter_blur);opacity:0.7;fill-opacity:1" width="128" x="67" y="46" />
  <rect fill="rgb(0,0,0)" height="40" stroke="rgb(0,0,0)" style="filter:url(#filter_blur);opacity:0.7;fill-opacity:1" width="128" x="259" y="46" />
  <rect fill="rgb(0,0,0)" height="40" stroke="rgb(0,0,0)" style="filter:url(#filter_blur);opacity:0.7;fill-opacity:1" width="128" x="451" y="46" />
  <rect fill="rgb(0,0,0)" height="40" stroke="rgb(0,0,0)" style="filter:url(#filter_blur);opacity:0.7;fill-opacity:1" width="128" x="643" y="46" />
  <path d="M 128 80 L 128 751" fill="none" stroke="rgb(0,0,0)" stroke-dasharray="8 4" />
  <rect fill="moccasin" height="598" stroke="rgb(0,0,0)" width="8" x="124" y="137" />
  <path d="M 320 80 L 320 751" fill="none" stroke="rgb(0,0,0)" stroke-dasharray="8 4" />
  <rect fill="moccasin" height="552" stroke="rgb(0,0,0)" width="8" x="316" y="137" />
  <path d="M 512 80 L 512 751" fill="none" stroke="rgb(0,0,0)" stroke-dasharray="8 4" />
  <rect fill="moccasin" height="50" stroke="rgb(0,0,0)" width="8" x="508" y="589" />
  <path d="M 704 80 L 704 751" fill="none" stroke="rgb(0,0,0)" stroke-dasharray="8 4" />
  <rect fill="moccasin" height="67" stroke="rgb(0,0,0)" width="8" x="700" y="204" />
  <rect fill="moccasin" height="50" stroke="rgb(0,0,0)" width="8" x="700" y="338" />
  <rect fill="moccasin" height="67" stroke="rgb(0,0,0)" width="8" x="700" y="455" />
  <rect fill="rgb(255,255,255)" height="40" stroke="rgb(0,0,0)" width="128" x="64" y="40" />
  <text fill="rgb(0,0,0)" font-family="sans-serif" font-size="11" font-style="normal" font-weight="normal" text-anchor="middle" textLength="77" x="128.5" y="66">task worker</text>
  <rect fill="rgb(255,255,255)" height="40" stroke="rgb(0,0,0)" width="128" x="256" y="40" />
  <text fill="rgb(0,0,0)" font-family="sans-serif" font-size="11" font-style="normal" font-weight="normal" text-anchor="middle" textLength="77" x="320.5" y="67">cloudigrade</text>
  <rect fill="rgb(255,255,255)" height="40" stroke="rgb(0,0,0)" width="128" x="448" y="40" />
  <text fill="rgb(0,0,0)" font-family="sans-serif" font-size="11" font-style="normal" font-weight="normal" text-anchor="middle" textLength="70" x="512.0" y="67">task queue</text>
  <rect fill="rgb(255,255,255)" height="40" stroke="rgb(0,0,0)" width="128" x="640" y="40" />
  <text fill="rgb(0,0,0)" font-family="sans-serif" font-size="11" font-style="normal" font-weight="normal" text-anchor="middle" textLength="21" x="704.5" y="66">AWS</text>
  <path d="M 136 137 L 312 137" fill="none" stroke="rgb(0,0,0)" />
  <polygon fill="rgb(0,0,0)" points="304,133 312,137 304,141" stroke="rgb(0,0,0)" />
  <path d="M 328 204 L 696 204" fill="none" stroke="rgb(0,0,0)" />
  <polygon fill="rgb(0,0,0)" points="688,200 696,204 688,208" stroke="rgb(0,0,0)" />
  <path d="M 328 271 L 696 271" fill="none" stroke="rgb(0,0,0)" stroke-dasharray="4" />
  <polygon fill="rgb(0,0,0)" points="336,267 328,271 336,275" stroke="rgb(0,0,0)" />
  <path d="M 328 338 L 696 338" fill="none" stroke="rgb(0,0,0)" />
  <polygon fill="rgb(0,0,0)" points="688,334 696,338 688,342" stroke="rgb(0,0,0)" />
  <path d="M 328 388 L 696 388" fill="none" stroke="rgb(0,0,0)" stroke-dasharray="4" />
  <polygon fill="rgb(0,0,0)" points="336,384 328,388 336,392" stroke="rgb(0,0,0)" />
  <path d="M 328 455 L 696 455" fill="none" stroke="rgb(0,0,0)" />
  <polygon fill="rgb(0,0,0)" points="688,451 696,455 688,459" stroke="rgb(0,0,0)" />
  <path d="M 328 522 L 696 522" fill="none" stroke="rgb(0,0,0)" stroke-dasharray="4" />
  <polygon fill="rgb(0,0,0)" points="336,518 328,522 336,526" stroke="rgb(0,0,0)" />
  <path d="M 328 589 L 504 589" fill="none" stroke="rgb(0,0,0)" />
  <polygon fill="rgb(0,0,0)" points="496,585 504,589 496,593" stroke="rgb(0,0,0)" />
  <path d="M 328 639 L 504 639" fill="none" stroke="rgb(0,0,0)" stroke-dasharray="4" />
  <polygon fill="rgb(0,0,0)" points="336,635 328,639 336,643" stroke="rgb(0,0,0)" />
  <path d="M 136 689 L 312 689" fill="none" stroke="rgb(0,0,0)" stroke-dasharray="4" />
  <polygon fill="rgb(0,0,0)" points="144,685 136,689 144,693" stroke="rgb(0,0,0)" />
  <text fill="rgb(0,0,0)" font-family="sans-serif" font-size="11" font-style="normal" font-weight="normal" text-anchor="middle" textLength="91" x="185.5" y="135">copy snapshot</text>
  <text fill="rgb(0,0,0)" font-family="sans-serif" font-size="11" font-style="normal" font-weight="normal" text-anchor="middle" textLength="105" x="384.5" y="202">get snapshot id</text>
  <text fill="rgb(0,0,0)" font-family="sans-serif" font-size="11" font-style="normal" font-weight="normal" text-anchor="middle" textLength="77" x="657.5" y="269">snapshot id</text>
  <text fill="rgb(0,0,0)" font-family="sans-serif" font-size="11" font-style="normal" font-weight="normal" text-anchor="middle" textLength="154" x="409.0" y="336">set snapshot ownership</text>
  <text fill="rgb(0,0,0)" font-family="sans-serif" font-size="11" font-style="normal" font-weight="normal" text-anchor="middle" textLength="133" x="398.5" y="453">start copy snapshot</text>
  <text fill="rgb(0,0,0)" font-family="sans-serif" font-size="11" font-style="normal" font-weight="normal" text-anchor="middle" textLength="105" x="643.5" y="520">new snapshot id</text>
  <text fill="rgb(0,0,0)" font-family="sans-serif" font-size="11" font-style="normal" font-weight="normal" text-anchor="middle" textLength="133" x="398.5" y="587">async create volume</text>
</svg>
