<?xml version='1.0' encoding='UTF-8'?>
<!DOCTYPE svg PUBLIC "-//W3C//DTD SVG 1.0//EN" "http://www.w3.org/TR/2001/REC-SVG-20010904/DTD/svg10.dtd">
<svg viewBox="0 0 1216 1545" xmlns="http://www.w3.org/2000/svg" xmlns:inkspace="http://www.inkscape.org/namespaces/inkscape" xmlns:xlink="http://www.w3.org/1999/xlink">
  <defs id="defs_block">
    <filter height="1.504" id="filter_blur" inkspace:collect="always" width="1.1575" x="-0.07875" y="-0.252">
      <feGaussianBlur id="feGaussianBlur3780" inkspace:collect="always" stdDeviation="4.2" />
    </filter>
  </defs>
  <title>blockdiag</title>
  <desc>seqdiag {
    cron; cloudigrade; db; queue; 'AWS SQS'; 'AWS S3';
    cron =&gt; cloudigrade [label='process activity logs'] {
        cloudigrade =&gt; 'AWS SQS' [label='get messages', return='messages'];
        === for each message ===
        cloudigrade =&gt; db [label='does account exist', return='true'];
        cloudigrade =&gt; 'AWS S3' [label='get cloudtrails log', return='log'];
        cloudigrade =&gt; db [label='does image exist', return='false'];
        cloudigrade =&gt; db [label='save image'];
        cloudigrade =&gt; db [label='does instance exist', return='false'];
        cloudigrade =&gt; db [label='save instance'];
        cloudigrade =&gt; db [label='save event'];
        cloudigrade =&gt; queue [label='async inspect image'];
        === end for each message ===
    }
}
</desc>
  <rect fill="rgb(0,0,0)" height="1380" style="filter:url(#filter_blur);opacity:0.7;fill-opacity:1" width="8" x="127" y="143" />
  <rect fill="rgb(0,0,0)" height="1334" style="filter:url(#filter_blur);opacity:0.7;fill-opacity:1" width="8" x="319" y="143" />
  <rect fill="rgb(0,0,0)" height="65" style="filter:url(#filter_blur);opacity:0.7;fill-opacity:1" width="8" x="511" y="422" />
  <rect fill="rgb(0,0,0)" height="65" style="filter:url(#filter_blur);opacity:0.7;fill-opacity:1" width="8" x="511" y="688" />
  <rect fill="rgb(0,0,0)" height="50" style="filter:url(#filter_blur);opacity:0.7;fill-opacity:1" width="8" x="511" y="820" />
  <rect fill="rgb(0,0,0)" height="65" style="filter:url(#filter_blur);opacity:0.7;fill-opacity:1" width="8" x="511" y="935" />
  <rect fill="rgb(0,0,0)" height="50" style="filter:url(#filter_blur);opacity:0.7;fill-opacity:1" width="8" x="511" y="1065" />
  <rect fill="rgb(0,0,0)" height="50" style="filter:url(#filter_blur);opacity:0.7;fill-opacity:1" width="8" x="511" y="1180" />
  <rect fill="rgb(0,0,0)" height="50" style="filter:url(#filter_blur);opacity:0.7;fill-opacity:1" width="8" x="703" y="1297" />
  <rect fill="rgb(0,0,0)" height="67" style="filter:url(#filter_blur);opacity:0.7;fill-opacity:1" width="8" x="895" y="210" />
  <rect fill="rgb(0,0,0)" height="67" style="filter:url(#filter_blur);opacity:0.7;fill-opacity:1" width="8" x="1087" y="554" />
  <rect fill="rgb(0,0,0)" height="40" stroke="rgb(0,0,0)" style="filter:url(#filter_blur);opacity:0.7;fill-opacity:1" width="128" x="67" y="46" />
  <rect fill="rgb(0,0,0)" height="40" stroke="rgb(0,0,0)" style="filter:url(#filter_blur);opacity:0.7;fill-opacity:1" width="128" x="259" y="46" />
  <rect fill="rgb(0,0,0)" height="40" stroke="rgb(0,0,0)" style="filter:url(#filter_blur);opacity:0.7;fill-opacity:1" width="128" x="451" y="46" />
  <rect fill="rgb(0,0,0)" height="40" stroke="rgb(0,0,0)" style="filter:url(#filter_blur);opacity:0.7;fill-opacity:1" width="128" x="643" y="46" />
  <rect fill="rgb(0,0,0)" height="40" stroke="rgb(0,0,0)" style="filter:url(#filter_blur);opacity:0.7;fill-opacity:1" width="128" x="835" y="46" />
  <rect fill="rgb(0,0,0)" height="40" stroke="rgb(0,0,0)" style="filter:url(#filter_blur);opacity:0.7;fill-opacity:1" width="128" x="1027" y="46" />
  <path d="M 128 80 L 128 1533" fill="none" stroke="rgb(0,0,0)" stroke-dasharray="8 4" />
  <rect fill="moccasin" height="1380" stroke="rgb(0,0,0)" width="8" x="124" y="137" />
  <path d="M 320 80 L 320 1533" fill="none" stroke="rgb(0,0,0)" stroke-dasharray="8 4" />
  <rect fill="moccasin" height="1334" stroke="rgb(0,0,0)" width="8" x="316" y="137" />
  <path d="M 512 80 L 512 1533" fill="none" stroke="rgb(0,0,0)" stroke-dasharray="8 4" />
  <rect fill="moccasin" height="65" stroke="rgb(0,0,0)" width="8" x="508" y="416" />
  <rect fill="moccasin" height="65" stroke="rgb(0,0,0)" width="8" x="508" y="682" />
  <rect fill="moccasin" height="50" stroke="rgb(0,0,0)" width="8" x="508" y="814" />
  <rect fill="moccasin" height="65" stroke="rgb(0,0,0)" width="8" x="508" y="929" />
  <rect fill="moccasin" height="50" stroke="rgb(0,0,0)" width="8" x="508" y="1059" />
  <rect fill="moccasin" height="50" stroke="rgb(0,0,0)" width="8" x="508" y="1174" />
  <path d="M 704 80 L 704 1533" fill="none" stroke="rgb(0,0,0)" stroke-dasharray="8 4" />
  <rect fill="moccasin" height="50" stroke="rgb(0,0,0)" width="8" x="700" y="1291" />
  <path d="M 896 80 L 896 1533" fill="none" stroke="rgb(0,0,0)" stroke-dasharray="8 4" />
  <rect fill="moccasin" height="67" stroke="rgb(0,0,0)" width="8" x="892" y="204" />
  <path d="M 1088 80 L 1088 1533" fill="none" stroke="rgb(0,0,0)" stroke-dasharray="8 4" />
  <rect fill="moccasin" height="67" stroke="rgb(0,0,0)" width="8" x="1084" y="548" />
  <rect fill="rgb(255,255,255)" height="40" stroke="rgb(0,0,0)" width="128" x="64" y="40" />
  <text fill="rgb(0,0,0)" font-family="sans-serif" font-size="11" font-style="normal" font-weight="normal" text-anchor="middle" textLength="28" x="128.0" y="66">cron</text>
  <rect fill="rgb(255,255,255)" height="40" stroke="rgb(0,0,0)" width="128" x="256" y="40" />
  <text fill="rgb(0,0,0)" font-family="sans-serif" font-size="11" font-style="normal" font-weight="normal" text-anchor="middle" textLength="77" x="320.5" y="67">cloudigrade</text>
  <rect fill="rgb(255,255,255)" height="40" stroke="rgb(0,0,0)" width="128" x="448" y="40" />
  <text fill="rgb(0,0,0)" font-family="sans-serif" font-size="11" font-style="normal" font-weight="normal" text-anchor="middle" textLength="14" x="512.0" y="66">db</text>
  <rect fill="rgb(255,255,255)" height="40" stroke="rgb(0,0,0)" width="128" x="640" y="40" />
  <text fill="rgb(0,0,0)" font-family="sans-serif" font-size="11" font-style="normal" font-weight="normal" text-anchor="middle" textLength="35" x="704.5" y="67">queue</text>
  <rect fill="rgb(255,255,255)" height="40" stroke="rgb(0,0,0)" width="128" x="832" y="40" />
  <text fill="rgb(0,0,0)" font-family="sans-serif" font-size="11" font-style="normal" font-weight="normal" text-anchor="middle" textLength="49" x="896.5" y="66">AWS SQS</text>
  <rect fill="rgb(255,255,255)" height="40" stroke="rgb(0,0,0)" width="128" x="1024" y="40" />
  <text fill="rgb(0,0,0)" font-family="sans-serif" font-size="11" font-style="normal" font-weight="normal" text-anchor="middle" textLength="42" x="1088.0" y="66">AWS S3</text>
  <path d="M 136 137 L 312 137" fill="none" stroke="rgb(0,0,0)" />
  <polygon fill="rgb(0,0,0)" points="304,133 312,137 304,141" stroke="rgb(0,0,0)" />
  <path d="M 328 204 L 888 204" fill="none" stroke="rgb(0,0,0)" />
  <polygon fill="rgb(0,0,0)" points="880,200 888,204 880,208" stroke="rgb(0,0,0)" />
  <path d="M 328 271 L 888 271" fill="none" stroke="rgb(0,0,0)" stroke-dasharray="4" />
  <polygon fill="rgb(0,0,0)" points="336,267 328,271 336,275" stroke="rgb(0,0,0)" />
  <path d="M 328 416 L 504 416" fill="none" stroke="rgb(0,0,0)" />
  <polygon fill="rgb(0,0,0)" points="496,412 504,416 496,420" stroke="rgb(0,0,0)" />
  <path d="M 328 481 L 504 481" fill="none" stroke="rgb(0,0,0)" stroke-dasharray="4" />
  <polygon fill="rgb(0,0,0)" points="336,477 328,481 336,485" stroke="rgb(0,0,0)" />
  <path d="M 328 548 L 1080 548" fill="none" stroke="rgb(0,0,0)" />
  <polygon fill="rgb(0,0,0)" points="1072,544 1080,548 1072,552" stroke="rgb(0,0,0)" />
  <path d="M 328 615 L 1080 615" fill="none" stroke="rgb(0,0,0)" stroke-dasharray="4" />
  <polygon fill="rgb(0,0,0)" points="336,611 328,615 336,619" stroke="rgb(0,0,0)" />
  <path d="M 328 682 L 504 682" fill="none" stroke="rgb(0,0,0)" />
  <polygon fill="rgb(0,0,0)" points="496,678 504,682 496,686" stroke="rgb(0,0,0)" />
  <path d="M 328 747 L 504 747" fill="none" stroke="rgb(0,0,0)" stroke-dasharray="4" />
  <polygon fill="rgb(0,0,0)" points="336,743 328,747 336,751" stroke="rgb(0,0,0)" />
  <path d="M 328 814 L 504 814" fill="none" stroke="rgb(0,0,0)" />
  <polygon fill="rgb(0,0,0)" points="496,810 504,814 496,818" stroke="rgb(0,0,0)" />
  <path d="M 328 864 L 504 864" fill="none" stroke="rgb(0,0,0)" stroke-dasharray="4" />
  <polygon fill="rgb(0,0,0)" points="336,860 328,864 336,868" stroke="rgb(0,0,0)" />
  <path d="M 328 929 L 504 929" fill="none" stroke="rgb(0,0,0)" />
  <polygon fill="rgb(0,0,0)" points="496,925 504,929 496,933" stroke="rgb(0,0,0)" />
  <path d="M 328 994 L 504 994" fill="none" stroke="rgb(0,0,0)" stroke-dasharray="4" />
  <polygon fill="rgb(0,0,0)" points="336,990 328,994 336,998" stroke="rgb(0,0,0)" />
  <path d="M 328 1059 L 504 1059" fill="none" stroke="rgb(0,0,0)" />
  <polygon fill="rgb(0,0,0)" points="496,1055 504,1059 496,1063" stroke="rgb(0,0,0)" />
  <path d="M 328 1109 L 504 1109" fill="none" stroke="rgb(0,0,0)" stroke-dasharray="4" />
  <polygon fill="rgb(0,0,0)" points="336,1105 328,1109 336,1113" stroke="rgb(0,0,0)" />
  <path d="M 328 1174 L 504 1174" fill="none" stroke="rgb(0,0,0)" />
  <polygon fill="rgb(0,0,0)" points="496,1170 504,1174 496,1178" stroke="rgb(0,0,0)" />
  <path d="M 328 1224 L 504 1224" fill="none" stroke="rgb(0,0,0)" stroke-dasharray="4" />
  <polygon fill="rgb(0,0,0)" points="336,1220 328,1224 336,1228" stroke="rgb(0,0,0)" />
  <path d="M 328 1291 L 696 1291" fill="none" stroke="rgb(0,0,0)" />
  <polygon fill="rgb(0,0,0)" points="688,1287 696,1291 688,1295" stroke="rgb(0,0,0)" />
  <path d="M 328 1341 L 696 1341" fill="none" stroke="rgb(0,0,0)" stroke-dasharray="4" />
  <polygon fill="rgb(0,0,0)" points="336,1337 328,1341 336,1345" stroke="rgb(0,0,0)" />
  <path d="M 136 1471 L 312 1471" fill="none" stroke="rgb(0,0,0)" stroke-dasharray="4" />
  <polygon fill="rgb(0,0,0)" points="144,1467 136,1471 144,1475" stroke="rgb(0,0,0)" />
  <text fill="rgb(0,0,0)" font-family="sans-serif" font-size="11" font-style="normal" font-weight="normal" text-anchor="middle" textLength="147" x="213.5" y="135">process activity logs</text>
  <text fill="rgb(0,0,0)" font-family="sans-serif" font-size="11" font-style="normal" font-weight="normal" text-anchor="middle" textLength="84" x="374.0" y="202">get messages</text>
  <text fill="rgb(0,0,0)" font-family="sans-serif" font-size="11" font-style="normal" font-weight="normal" text-anchor="middle" textLength="56" x="860.0" y="269">messages</text>
  <text fill="rgb(0,0,0)" font-family="sans-serif" font-size="11" font-style="normal" font-weight="normal" text-anchor="middle" textLength="126" x="395.0" y="414">does account exist</text>
  <text fill="rgb(0,0,0)" font-family="sans-serif" font-size="11" font-style="normal" font-weight="normal" text-anchor="middle" textLength="28" x="490.0" y="479">true</text>
  <text fill="rgb(0,0,0)" font-family="sans-serif" font-size="11" font-style="normal" font-weight="normal" text-anchor="middle" textLength="133" x="398.5" y="546">get cloudtrails log</text>
  <text fill="rgb(0,0,0)" font-family="sans-serif" font-size="11" font-style="normal" font-weight="normal" text-anchor="middle" textLength="21" x="1069.5" y="613">log</text>
  <text fill="rgb(0,0,0)" font-family="sans-serif" font-size="11" font-style="normal" font-weight="normal" text-anchor="middle" textLength="112" x="388.0" y="680">does image exist</text>
  <text fill="rgb(0,0,0)" font-family="sans-serif" font-size="11" font-style="normal" font-weight="normal" text-anchor="middle" textLength="35" x="486.5" y="745">false</text>
  <text fill="rgb(0,0,0)" font-family="sans-serif" font-size="11" font-style="normal" font-weight="normal" text-anchor="middle" textLength="70" x="367.0" y="812">save image</text>
  <text fill="rgb(0,0,0)" font-family="sans-serif" font-size="11" font-style="normal" font-weight="normal" text-anchor="middle" textLength="133" x="398.5" y="927">does instance exist</text>
  <text fill="rgb(0,0,0)" font-family="sans-serif" font-size="11" font-style="normal" font-weight="normal" text-anchor="middle" textLength="35" x="486.5" y="992">false</text>
  <text fill="rgb(0,0,0)" font-family="sans-serif" font-size="11" font-style="normal" font-weight="normal" text-anchor="middle" textLength="91" x="377.5" y="1057">save instance</text>
  <text fill="rgb(0,0,0)" font-family="sans-serif" font-size="11" font-style="normal" font-weight="normal" text-anchor="middle" textLength="70" x="367.0" y="1172">save event</text>
  <text fill="rgb(0,0,0)" font-family="sans-serif" font-size="11" font-style="normal" font-weight="normal" text-anchor="middle" textLength="133" x="398.5" y="1289">async inspect image</text>
  <path d="M 40 338 L 542 338" fill="none" stroke="rgb(0,0,0)" />
  <path d="M 40 342 L 542 342" fill="none" stroke="rgb(0,0,0)" />
  <path d="M 674 338 L 1176 338" fill="none" stroke="rgb(0,0,0)" />
  <path d="M 674 342 L 1176 342" fill="none" stroke="rgb(0,0,0)" />
  <rect fill="rgb(208,208,208)" height="21" stroke="rgb(0,0,0)" width="132" x="542" y="330" />
  <text fill="rgb(0,0,0)" font-family="sans-serif" font-size="11" font-style="normal" font-weight="normal" text-anchor="middle" textLength="112" x="608.0" y="347">for each message</text>
  <path d="M 40 1408 L 528 1408" fill="none" stroke="rgb(0,0,0)" />
  <path d="M 40 1412 L 528 1412" fill="none" stroke="rgb(0,0,0)" />
  <path d="M 688 1408 L 1176 1408" fill="none" stroke="rgb(0,0,0)" />
  <path d="M 688 1412 L 1176 1412" fill="none" stroke="rgb(0,0,0)" />
  <rect fill="rgb(208,208,208)" height="21" stroke="rgb(0,0,0)" width="160" x="528" y="1400" />
  <text fill="rgb(0,0,0)" font-family="sans-serif" font-size="11" font-style="normal" font-weight="normal" text-anchor="middle" textLength="140" x="608.0" y="1417">end for each message</text>
</svg>
